<svg width="1000" height="1000" viewBox="0 0 1000 1000" fill="none" xmlns="http://www.w3.org/2000/svg">
<g clip-path="url(#clip0_14_2)">
<rect x="50" y="50" width="900" height="900" rx="158" fill="black"/>
<path d="M782.773 782.598H283.759L378.04 688.317H688.492V377.865L782.773 283.583V782.598ZM621.83 311.194H311.369V621.655L217.088 715.936V216.912H716.111L621.83 311.194Z" fill="#666666"/>
<rect x="155.403" y="654.376" width="282.843" height="75.4247" transform="rotate(45 155.403 654.376)" fill="#444444"/>
<rect x="707.889" y="101.889" width="282.843" height="75.4247" transform="rotate(45 707.889 101.889)" fill="#444444"/>
<circle cx="639.408" cy="359.879" r="42.4264" transform="rotate(45 639.408 359.879)" fill="white"/>
<circle cx="557.017" cy="442.27" r="42.4264" transform="rotate(45 557.017 442.27)" fill="white"/>
<circle cx="452.446" cy="546.842" r="42.4264" transform="rotate(45 452.446 546.842)" fill="white"/>
<circle cx="360.055" cy="640.175" r="42.4264" transform="rotate(45 360.055 640.175)" fill="white"/>
</g>
<defs>
<clipPath id="clip0_14_2">
<rect width="1000" height="1000" fill="white"/>
</clipPath>
</defs>
</svg>
